{
  "accessors": [
    {
      "bufferView": 2,
      "componentType": 5126,
      "count": 1010,
      "max": [
        1.0002245903015137,
        1.000000238418579,
        1.0
      ],
      "min": [
        -1.0,
        -1.000000238418579,
        -0.7423430681228638
      ],
      "type": "VEC3"
    },
    {
      "bufferView": 2,
      "byteOffset": 12120,
      "componentType": 5126,
      "count": 1010,
      "max": [
        1.0,
        1.0,
        1.0
      ],
      "min": [
        -1.0,
        -1.0,
        -1.0
      ],
      "type": "VEC3"
    },
    {
      "bufferView": 1,
      "componentType": 5126,
      "count": 1010,
      "max": [
        3.8616530895233154,
        4.178249835968018
      ],
      "min": [
        -2.9566006660461426,
        -3.1782498359680176
      ],
      "type": "VEC2"
    },
    {
      "bufferView": 0,
      "componentType": 5125,
      "count": 3216,
      "type": "SCALAR"
    },
    {
      "bufferView": 2,
      "byteOffset": 24240,
      "componentType": 5126,
      "count": 143,
      "max": [
        1.0000563859939575,
        1.000000238418579,
        0.5764136910438538
      ],
      "min": [
        -1.0,
        -1.000000238418579,
        -0.34042617678642273
      ],
      "type": "VEC3"
    },
    {
      "bufferView": 2,
      "byteOffset": 25956,
      "componentType": 5126,
      "count": 143,
      "max": [
        0.9977777600288391,
        0.9990942478179932,
        0.06665623188018799
      ],
      "min": [
        -0.9977760314941406,
        -0.9990943074226379,
        -1.0
      ],
      "type": "VEC3"
    },
    {
      "bufferView": 1,
      "byteOffset": 8080,
      "componentType": 5126,
      "count": 143,
      "max": [
        3.846766948699951,
        4.178249835968018
      ],
      "min": [
        -2.39766001701355,
        -3.1782498359680176
      ],
      "type": "VEC2"
    },
    {
      "bufferView": 1,
      "byteOffset": 9224,
      "componentType": 5126,
      "count": 143,
      "max": [
        3.846766948699951,
        4.178249835968018
      ],
      "min": [
        -2.39766001701355,
        -3.1782498359680176
      ],
      "type": "VEC2"
    },
    {
      "bufferView": 0,
      "byteOffset": 12864,
      "componentType": 5125,
      "count": 387,
      "type": "SCALAR"
    },
    {
      "bufferView": 2,
      "byteOffset": 27672,
      "componentType": 5126,
      "count": 182,
      "max": [
        0.8905650973320007,
        0.9957967400550842,
        0.962019145488739
      ],
      "min": [
        -0.8555135130882263,
        -0.994155764579773,
        0.3013157844543457
      ],
      "type": "VEC3"
    },
    {
      "bufferView": 2,
      "byteOffset": 29856,
      "componentType": 5126,
      "count": 182,
      "max": [
        1.0,
        0.007260373327881098,
        1.0
      ],
      "min": [
        -1.0,
        -1.0,
        -1.0
      ],
      "type": "VEC3"
    },
    {
      "bufferView": 1,
      "byteOffset": 10368,
      "componentType": 5126,
      "count": 182,
      "max": [
        3.888306140899658,
        3.6313223838806152
      ],
      "min": [
        -2.9566006660461426,
        -3.1782498359680176
      ],
      "type": "VEC2"
    },
    {
      "bufferView": 0,
      "byteOffset": 14412,
      "componentType": 5125,
      "count": 432,
      "type": "SCALAR"
    },
    {
      "bufferView": 2,
      "byteOffset": 32040,
      "componentType": 5126,
      "count": 32,
      "max": [
        -0.8140618205070496,
        0.9445909857749939,
        0.987205445766449
      ],
      "min": [
        -0.919041097164154,
        0.867067813873291,
        0.987205445766449
      ],
      "type": "VEC3"
    },
    {
      "bufferView": 2,
      "byteOffset": 32424,
      "componentType": 5126,
      "count": 32,
      "max": [
        5.55783253730624e-06,
        0.0,
        1.0
      ],
      "min": [
        -5.557854819926433e-06,
        0.0,
        1.0
      ],
      "type": "VEC3"
    },
    {
      "bufferView": 1,
      "byteOffset": 11824,
      "componentType": 5126,
      "count": 32,
      "max": [
        2.382387161254883,
        -0.7259972095489502
      ],
      "min": [
        2.2842202186584473,
        -0.8589314222335815
      ],
      "type": "VEC2"
    },
    {
      "bufferView": 0,
      "byteOffset": 16140,
      "componentType": 5125,
      "count": 96,
      "type": "SCALAR"
    },
    {
      "bufferView": 2,
      "byteOffset": 32808,
      "componentType": 5126,
      "count": 54,
      "max": [
        -0.027311576530337334,
        1.0,
        1.8163424730300903
      ],
      "min": [
        -0.04665033519268036,
        -1.0,
        -94.67764282226563
      ],
      "type": "VEC3"
    },
    {
      "bufferView": 2,
      "byteOffset": 33456,
      "componentType": 5126,
      "count": 54,
      "max": [
        0.9995579719543457,
        1.0,
        1.0
      ],
      "min": [
        -1.0,
        -1.0,
        -1.0
      ],
      "type": "VEC3"
    },
    {
      "bufferView": 1,
      "byteOffset": 12080,
      "componentType": 5126,
      "count": 54,
      "max": [
        2.671090602874756,
        0.7981044054031372
      ],
      "min": [
        -1.2145367860794067,
        -2.567079544067383
      ],
      "type": "VEC2"
    },
    {
      "bufferView": 0,
      "byteOffset": 16524,
      "componentType": 5125,
      "count": 78,
      "type": "SCALAR"
    },
    {
      "bufferView": 2,
      "byteOffset": 34104,
      "componentType": 5126,
      "count": 4,
      "max": [
        -0.03222949802875519,
        0.9639759063720703,
        -16.876628875732422
      ],
      "min": [
        -0.03242657333612442,
        -0.9639759063720703,
        -86.54157257080078
      ],
      "type": "VEC3"
    },
    {
      "bufferView": 2,
      "byteOffset": 34152,
      "componentType": 5126,
      "count": 4,
      "max": [
        1.0,
        0.0,
        -2.82890209746256e-06
      ],
      "min": [
        1.0,
        0.0,
        -2.82890209746256e-06
      ],
      "type": "VEC3"
    },
    {
      "bufferView": 1,
      "byteOffset": 12512,
      "componentType": 5126,
      "count": 4,
      "max": [
        1.0,
        1.0
      ],
      "min": [
        0.0,
        0.0
      ],
      "type": "VEC2"
    },
    {
      "bufferView": 1,
      "byteOffset": 12544,
      "componentType": 5126,
      "count": 4,
      "max": [
        1.0,
        1.0
      ],
      "min": [
        0.0,
        0.0
      ],
      "type": "VEC2"
    },
    {
      "bufferView": 0,
      "byteOffset": 16836,
      "componentType": 5125,
      "count": 6,
      "type": "SCALAR"
    },
    {
      "bufferView": 2,
      "byteOffset": 34200,
      "componentType": 5126,
      "count": 90,
      "max": [
        0.051585305482149124,
        1.0,
        3.133479118347168
      ],
      "min": [
        -0.03242657333612442,
        -0.9999997019767761,
        -94.18365478515625
      ],
      "type": "VEC3"
    },
    {
      "bufferView": 2,
      "byteOffset": 35280,
      "componentType": 5126,
      "count": 90,
      "max": [
        1.0,
        1.0,
        0.1656406819820404
      ],
      "min": [
        -1.0,
        -1.0,
        -0.049459896981716156
      ],
      "type": "VEC3"
    },
    {
      "bufferView": 1,
      "byteOffset": 12576,
      "componentType": 5126,
      "count": 90,
      "max": [
        3.2887935638427734,
        5.439260005950928
      ],
      "min": [
        -2.2588424682617188,
        -4.439260005950928
      ],
      "type": "VEC2"
    },
    {
      "bufferView": 1,
      "byteOffset": 13296,
      "componentType": 5126,
      "count": 90,
      "max": [
        3.2887935638427734,
        5.439260005950928
      ],
      "min": [
        -2.2588424682617188,
        -4.439260005950928
      ],
      "type": "VEC2"
    },
    {
      "bufferView": 0,
      "byteOffset": 16860,
      "componentType": 5125,
      "count": 210,
      "type": "SCALAR"
    },
    {
      "bufferView": 2,
      "byteOffset": 36360,
      "componentType": 5126,
      "count": 4,
      "max": [
        -0.04300388693809509,
        0.9882175922393799,
        -80.67285919189453
      ],
      "min": [
        -0.043009400367736816,
        0.938714325428009,
        -89.3675765991211
      ],
      "type": "VEC3"
    },
    {
      "bufferView": 2,
      "byteOffset": 36408,
      "componentType": 5126,
      "count": 4,
      "max": [
        -1.0,
        0.0,
        6.341127800624236e-07
      ],
      "min": [
        -1.0,
        0.0,
        6.341127800624236e-07
      ],
      "type": "VEC3"
    },
    {
      "bufferView": 1,
      "byteOffset": 14016,
      "componentType": 5126,
      "count": 4,
      "max": [
        0.9944061040878296,
        0.9996575713157654
      ],
      "min": [
        0.0003420114517211914,
        0.0003416635445319116
      ],
      "type": "VEC2"
    },
    {
      "bufferView": 0,
      "byteOffset": 17700,
      "componentType": 5125,
      "count": 6,
      "type": "SCALAR"
    },
    {
      "bufferView": 2,
      "byteOffset": 36456,
      "componentType": 5126,
      "count": 3300,
      "max": [
        17.1207275390625,
        6.725964546203613,
        0.31818056106567383
      ],
      "min": [
        -17.333335876464844,
        -5.61301851272583,
        -0.5772656798362732
      ],
      "type": "VEC3"
    },
    {
      "bufferView": 2,
      "byteOffset": 76056,
      "componentType": 5126,
      "count": 3300,
      "max": [
        0.9999438524246216,
        0.9968257546424866,
        1.0
      ],
      "min": [
        -0.9999991059303284,
        -1.0,
        -1.0
      ],
      "type": "VEC3"
    },
    {
      "bufferView": 1,
      "byteOffset": 14048,
      "componentType": 5126,
      "count": 3300,
      "max": [
        0.9588420987129211,
        0.885418176651001
      ],
      "min": [
        0.016377955675125122,
        0.1688959002494812
      ],
      "type": "VEC2"
    },
    {
      "bufferView": 0,
      "byteOffset": 17724,
      "componentType": 5125,
      "count": 9378,
      "type": "SCALAR"
    }
  ],
  "asset": {
    "extras": {
      "author": "ilyagum (https://sketchfab.com/igrogar21)",
      "license": "CC-BY-4.0 (http://creativecommons.org/licenses/by/4.0/)",
      "source": "https://sketchfab.com/3d-models/lenovo-ideapad-3-14ada05-laptop-09f40895928c4529a463d9bb4e5b3e55",
      "title": "Lenovo IdeaPad 3 14ADA05  Laptop"
    },
    "generator": "Sketchfab-15.55.0",
    "version": "2.0"
  },
  "bufferViews": [
    {
      "buffer": 0,
      "byteLength": 55236,
      "name": "floatBufferViews",
      "target": 34963
    },
    {
      "buffer": 0,
      "byteLength": 40448,
      "byteOffset": 55236,
      "byteStride": 8,
      "name": "floatBufferViews",
      "target": 34962
    },
    {
      "buffer": 0,
      "byteLength": 115656,
      "byteOffset": 95684,
      "byteStride": 12,
      "name": "floatBufferViews",
      "target": 34962
    }
  ],
  "buffers": [
    {
      "byteLength": 211340,
      "uri": "scene.bin"
    }
  ],
  "extensionsUsed": [
    "KHR_materials_emissive_strength"
  ],
  "images": [
    {
      "uri": "textures/mLaptopBase_baseColor.png"
    },
    {
      "uri": "textures/mLaptopPlastic_baseColor.png"
    },
    {
      "uri": "textures/mLaptopPlastic_metallicRoughness.png"
    },
    {
      "uri": "textures/mLogo_baseColor.png"
    },
    {
      "uri": "textures/mScreen_baseColor.png"
    },
    {
      "uri": "textures/mKeyboard_baseColor.png"
    }
  ],
  "materials": [
    {
      "doubleSided": true,
      "name": "mLaptopBase",
      "pbrMetallicRoughness": {
        "baseColorTexture": {
          "index": 0
        },
        "roughnessFactor": 0.5159021574260289
      }
    },
    {
      "doubleSided": true,
      "name": "mLaptopPlastic",
      "pbrMetallicRoughness": {
        "baseColorTexture": {
          "index": 1
        },
        "metallicFactor": 0.0,
        "metallicRoughnessTexture": {
          "index": 2
        }
      }
    },
    {
      "doubleSided": true,
      "name": "mLogo",
      "pbrMetallicRoughness": {
        "baseColorTexture": {
          "index": 3
        },
        "metallicFactor": 0.0,
        "roughnessFactor": 0.9421496703688356
      }
    },
    {
      "doubleSided": true,
      "emissiveFactor": [
        1.0,
        1.0,
        1.0
      ],
      "extensions": {
        "KHR_materials_emissive_strength": {
          "emissiveStrength": 10.0
        }
      },
      "name": "mButton",
      "pbrMetallicRoughness": {
        "baseColorFactor": [
          0.8,
          0.8,
          0.8,
          1.0
        ],
        "metallicFactor": 0.0,
        "roughnessFactor": 0.8211145618000169
      }
    },
    {
      "doubleSided": true,
      "emissiveFactor": [
        1.0,
        1.0,
        1.0
      ],
      "emissiveTexture": {
        "index": 4
      },
      "extensions": {
        "KHR_materials_emissive_strength": {
          "emissiveStrength": 2.0
        }
      },
      "name": "mScreen",
      "pbrMetallicRoughness": {
        "baseColorFactor": [
          0.0,
          0.0,
          0.0,
          1.0
        ],
        "baseColorTexture": {
          "index": 4
        },
        "metallicFactor": 0.0,
        "roughnessFactor": 0.17581361294426912
      }
    },
    {
      "doubleSided": true,
      "name": "mKeyboard",
      "pbrMetallicRoughness": {
        "baseColorTexture": {
          "index": 5
        },
        "metallicFactor": 0.0,
        "roughnessFactor": 0.8802827407993428
      }
    }
  ],
  "meshes": [
    {
      "name": "Base_mLaptopBase_0",
      "primitives": [
        {
          "attributes": {
            "NORMAL": 1,
            "POSITION": 0,
            "TEXCOORD_0": 2
          },
          "indices": 3,
          "material": 0,
          "mode": 4
        }
      ]
    },
    {
      "name": "Base_mLaptopPlastic_0",
      "primitives": [
        {
          "attributes": {
            "NORMAL": 5,
            "POSITION": 4,
            "TEXCOORD_0": 6,
            "TEXCOORD_1": 7
          },
          "indices": 8,
          "material": 1,
          "mode": 4
        }
      ]
    },
    {
      "name": "Base_mLogo_0",
      "primitives": [
        {
          "attributes": {
            "NORMAL": 10,
            "POSITION": 9,
            "TEXCOORD_0": 11
          },
          "indices": 12,
          "material": 2,
          "mode": 4
        }
      ]
    },
    {
      "name": "Base_mButton_0",
      "primitives": [
        {
          "attributes": {
            "NORMAL": 14,
            "POSITION": 13,
            "TEXCOORD_0": 15
          },
          "indices": 16,
          "material": 3,
          "mode": 4
        }
      ]
    },
    {
      "name": "Screen_mLaptopBase_0",
      "primitives": [
        {
          "attributes": {
            "NORMAL": 18,
            "POSITION": 17,
            "TEXCOORD_0": 19
          },
          "indices": 20,
          "material": 0,
          "mode": 4
        }
      ]
    },
    {
      "name": "Screen_mScreen_0",
      "primitives": [
        {
          "attributes": {
            "NORMAL": 22,
            "POSITION": 21,
            "TEXCOORD_0": 23,
            "TEXCOORD_1": 24
          },
          "indices": 25,
          "material": 4,
          "mode": 4
        }
      ]
    },
    {
      "name": "Screen_mLaptopPlastic_0",
      "primitives": [
        {
          "attributes": {
            "NORMAL": 27,
            "POSITION": 26,
            "TEXCOORD_0": 28,
            "TEXCOORD_1": 29
          },
          "indices": 30,
          "material": 1,
          "mode": 4
        }
      ]
    },
    {
      "name": "Screen_mLogo_0",
      "primitives": [
        {
          "attributes": {
            "NORMAL": 32,
            "POSITION": 31,
            "TEXCOORD_0": 33
          },
          "indices": 34,
          "material": 2,
          "mode": 4
        }
      ]
    },
    {
      "name": "Keyboard_mKeyboard_0",
      "primitives": [
        {
          "attributes": {
            "NORMAL": 36,
            "POSITION": 35,
            "TEXCOORD_0": 37
          },
          "indices": 38,
          "material": 5,
          "mode": 4
        }
      ]
    }
  ],
  "nodes": [
    {
      "children": [
        1
      ],
      "matrix": [
        1.0,
        0.0,
        0.0,
        0.0,
        0.0,
        2.220446049250313e-16,
        -1.0,
        0.0,
        0.0,
        1.0,
        2.220446049250313e-16,
        0.0,
        0.0,
        0.0,
        0.0,
        1.0
      ],
      "name": "Sketchfab_model"
    },
    {
      "children": [
        2
      ],
      "matrix": [
        0.009999999776482582,
        0.0,
        0.0,
        0.0,
        0.0,
        0.0,
        0.009999999776482582,
        0.0,
        0.0,
        -0.009999999776482582,
        0.0,
        0.0,
        0.0,
        0.0,
        0.0,
        1.0
      ],
      "name": "0602b490370642349795a8051efb2667.fbx"
    },
    {
      "children": [
        3,
        8,
        11,
        13,
        18
      ],
      "name": "RootNode"
    },
    {
      "children": [
        4,
        5,
        6,
        7
      ],
      "matrix": [
        12.0,
        0.0,
        0.0,
        0.0,
        0.0,
        -2.6474610401172605e-06,
        -16.249999999999787,
        0.0,
        0.0,
        0.7499999999999901,
        -1.2219050954387356e-07,
        0.0,
        0.0,
        6.237532943487167e-05,
        0.0,
        1.0
      ],
      "name": "Base"
    },
    {
      "mesh": 0,
      "name": "Base_mLaptopBase_0"
    },
    {
      "mesh": 1,
      "name": "Base_mLaptopPlastic_0"
    },
    {
      "mesh": 2,
      "name": "Base_mLogo_0"
    },
    {
      "mesh": 3,
      "name": "Base_mButton_0"
    },
    {
      "children": [
        9
      ],
      "matrix": [
        -29.086477364379697,
        -5.518905590722295,
        -95.51711910171437,
        0.0,
        56.63932069164076,
        79.46722539115298,
        -21.839126361216156,
        0.0,
        77.11007920637729,
        -60.452475336912016,
        -19.988344364310564,
        0.0,
        -36.88398742675781,
        52.857601165771484,
        66.11276245117188,
        1.0
      ],
      "name": "Light"
    },
    {
      "children": [
        10
      ],
      "matrix": [
        1.0,
        0.0,
        0.0,
        0.0,
        0.0,
        2.220446049250313e-16,
        1.0,
        0.0,
        0.0,
        -1.0,
        2.220446049250313e-16,
        0.0,
        0.0,
        0.0,
        0.0,
        1.0
      ],
      "name": "Object_9"
    },
    {
      "name": "Object_10"
    },
    {
      "children": [
        12
      ],
      "matrix": [
        -91.57226307748567,
        -19.766868049284263,
        -34.98275415499622,
        0.0,
        -18.46528441839412,
        98.02688910262827,
        -7.054238740560867,
        0.0,
        35.686902238901844,
        -6.1005503360337843e-05,
        -93.41543492757766,
        0.0,
        66.14320373535156,
        22.926124572753906,
        30.31841468811035,
        1.0
      ],
      "name": "Camera"
    },
    {
      "name": "Object_12"
    },
    {
      "children": [
        14,
        15,
        16,
        17
      ],
      "matrix": [
        10.654420073555862,
        5.521169260946912,
        -1.4679599728221457e-06,
        -0.0,
        -1.4381485476458455e-06,
        -1.5452724612396995e-06,
        -16.24999999999986,
        -0.0,
        0.11502435503240484,
        -0.22196707604556776,
        1.0927846213072753e-08,
        -0.0,
        -11.493500709533691,
        0.6660117506980896,
        -0.032507818192243576,
        1.0
      ],
      "name": "Screen"
    },
    {
      "mesh": 4,
      "name": "Screen_mLaptopBase_0"
    },
    {
      "mesh": 5,
      "name": "Screen_mScreen_0"
    },
    {
      "mesh": 6,
      "name": "Screen_mLaptopPlastic_0"
    },
    {
      "mesh": 7,
      "name": "Screen_mLogo_0"
    },
    {
      "children": [
        19
      ],
      "matrix": [
        3.489688822611419e-08,
        -8.863440110341684e-17,
        -0.7983477115631097,
        0.0,
        -0.8420009016990646,
        -3.6805029847645395e-08,
        -3.680502989438584e-08,
        0.0,
        -6.556708778331076e-09,
        0.15000000596046434,
        -2.997602285601931e-16,
        0.0,
        -3.192474603652954,
        0.6613134145736694,
        -0.1608312577009201,
        1.0
      ],
      "name": "Keyboard"
    },
    {
      "mesh": 8,
      "name": "Keyboard_mKeyboard_0"
    }
  ],
  "samplers": [
    {
      "magFilter": 9729,
      "minFilter": 9987,
      "wrapS": 10497,
      "wrapT": 10497
    }
  ],
  "scene": 0,
  "scenes": [
    {
      "name": "Sketchfab_Scene",
      "nodes": [
        0
      ]
    }
  ],
  "textures": [
    {
      "sampler": 0,
      "source": 0
    },
    {
      "sampler": 0,
      "source": 1
    },
    {
      "sampler": 0,
      "source": 2
    },
    {
      "sampler": 0,
      "source": 3
    },
    {
      "sampler": 0,
      "source": 4
    },
    {
      "sampler": 0,
      "source": 5
    }
  ]
}
